<svg width="302" height="107" viewBox="0 0 302 107" fill="none" xmlns="http://www.w3.org/2000/svg">
<g filter="url(#filter0_d)">
<rect x="4" width="294" height="99" fill="black"/>
</g>
<g filter="url(#filter1_d)">
<mask id="path-2-inside-1" fill="white">
<path fill-rule="evenodd" clip-rule="evenodd" d="M52.0153 5.00007C50.3585 4.98899 49.049 6.32273 49.0905 7.97906L49.3026 16.4521C46.0765 17.5662 42.9398 19.1804 40.0018 21.3052L34.8683 16.2892C33.6833 15.1312 31.8332 15.199 30.736 16.4405L22.6357 25.6066C21.5385 26.8482 21.6097 28.7933 22.7948 29.9513L28.2395 35.2714C27.072 37.6553 26.1659 40.1408 25.5286 42.6776L16.9306 42.6043C15.2739 42.5902 13.9621 43.9215 14.0008 45.5779L14.3093 58.7813C14.348 60.4377 15.7225 61.792 17.3793 61.8061L25.8993 61.8787C26.59 64.1572 27.5231 66.3724 28.7041 68.4852L22.9981 75.0565C21.9118 76.3075 21.9996 78.2524 23.1941 79.4006L32.5825 88.4243C33.7771 89.5725 35.6261 89.4891 36.7124 88.238L42.4524 81.6275C45.1939 82.9777 48.1085 83.9162 51.1074 84.4346L51.3719 92.0162C51.4296 93.672 52.8196 95.0079 54.4764 95L66.6874 94.9414C68.3442 94.9335 69.6405 93.5847 69.5828 91.9289L69.2537 82.494C72.0936 81.3689 74.8499 79.8478 77.4458 77.9232L82.7914 83.1466C83.9765 84.3045 85.8266 84.2368 86.9237 82.9953L95.0241 73.8291C96.1213 72.5876 96.05 70.6425 94.865 69.4845L89.0518 63.8043C90.1351 61.5229 90.9808 59.1519 91.5826 56.735L100.106 56.5618C101.763 56.5281 103.039 55.1594 102.957 53.5045L102.303 40.2983C102.221 38.6435 100.812 37.3293 99.155 37.3629L91.1671 37.5252C90.5037 35.3573 89.6205 33.2471 88.5128 31.2285L93.3599 25.6463C94.4462 24.3953 94.3585 22.4503 93.1639 21.3022L83.7755 12.2784C82.581 11.1303 80.732 11.2137 79.6457 12.4648L74.8633 17.9724C72.5414 16.8058 70.0926 15.9364 67.5716 15.3694L67.3896 8.10147C67.3481 6.44513 65.9714 5.09342 64.3146 5.08234L52.0153 5.00007Z"/>
</mask>
<path fill-rule="evenodd" clip-rule="evenodd" d="M52.0153 5.00007C50.3585 4.98899 49.049 6.32273 49.0905 7.97906L49.3026 16.4521C46.0765 17.5662 42.9398 19.1804 40.0018 21.3052L34.8683 16.2892C33.6833 15.1312 31.8332 15.199 30.736 16.4405L22.6357 25.6066C21.5385 26.8482 21.6097 28.7933 22.7948 29.9513L28.2395 35.2714C27.072 37.6553 26.1659 40.1408 25.5286 42.6776L16.9306 42.6043C15.2739 42.5902 13.9621 43.9215 14.0008 45.5779L14.3093 58.7813C14.348 60.4377 15.7225 61.792 17.3793 61.8061L25.8993 61.8787C26.59 64.1572 27.5231 66.3724 28.7041 68.4852L22.9981 75.0565C21.9118 76.3075 21.9996 78.2524 23.1941 79.4006L32.5825 88.4243C33.7771 89.5725 35.6261 89.4891 36.7124 88.238L42.4524 81.6275C45.1939 82.9777 48.1085 83.9162 51.1074 84.4346L51.3719 92.0162C51.4296 93.672 52.8196 95.0079 54.4764 95L66.6874 94.9414C68.3442 94.9335 69.6405 93.5847 69.5828 91.9289L69.2537 82.494C72.0936 81.3689 74.8499 79.8478 77.4458 77.9232L82.7914 83.1466C83.9765 84.3045 85.8266 84.2368 86.9237 82.9953L95.0241 73.8291C96.1213 72.5876 96.05 70.6425 94.865 69.4845L89.0518 63.8043C90.1351 61.5229 90.9808 59.1519 91.5826 56.735L100.106 56.5618C101.763 56.5281 103.039 55.1594 102.957 53.5045L102.303 40.2983C102.221 38.6435 100.812 37.3293 99.155 37.3629L91.1671 37.5252C90.5037 35.3573 89.6205 33.2471 88.5128 31.2285L93.3599 25.6463C94.4462 24.3953 94.3585 22.4503 93.1639 21.3022L83.7755 12.2784C82.581 11.1303 80.732 11.2137 79.6457 12.4648L74.8633 17.9724C72.5414 16.8058 70.0926 15.9364 67.5716 15.3694L67.3896 8.10147C67.3481 6.44513 65.9714 5.09342 64.3146 5.08234L52.0153 5.00007Z" fill="black"/>
<path d="M49.0905 7.97906L48.0908 8.00409L48.0908 8.00409L49.0905 7.97906ZM52.0153 5.00007L52.0086 6.00005L52.0086 6.00005L52.0153 5.00007ZM49.3026 16.4521L49.629 17.3973L50.3206 17.1585L50.3023 16.4271L49.3026 16.4521ZM40.0018 21.3052L39.3029 22.0204L39.9053 22.6091L40.5878 22.1155L40.0018 21.3052ZM34.8683 16.2892L34.1695 17.0044L34.1695 17.0044L34.8683 16.2892ZM30.736 16.4405L31.4853 17.1027L31.4853 17.1027L30.736 16.4405ZM22.6357 25.6066L21.8863 24.9444L21.8863 24.9444L22.6357 25.6066ZM22.7948 29.9513L23.4937 29.236L23.4937 29.236L22.7948 29.9513ZM28.2395 35.2714L29.1376 35.7113L29.4557 35.0617L28.9384 34.5562L28.2395 35.2714ZM25.5286 42.6776L25.5201 43.6776L26.3068 43.6843L26.4985 42.9213L25.5286 42.6776ZM16.9306 42.6043L16.9392 41.6043L16.9392 41.6043L16.9306 42.6043ZM14.0008 45.5779L13.0011 45.6012L14.0008 45.5779ZM14.3093 58.7813L13.3096 58.8047L13.3096 58.8047L14.3093 58.7813ZM17.3793 61.8061L17.3708 62.806L17.3708 62.806L17.3793 61.8061ZM25.8993 61.8787L26.8563 61.5886L26.643 60.885L25.9079 60.8788L25.8993 61.8787ZM28.7041 68.4852L29.4592 69.1408L29.9197 68.6104L29.577 67.9973L28.7041 68.4852ZM22.9981 75.0565L22.2431 74.4008L22.2431 74.4008L22.9981 75.0565ZM23.1941 79.4006L22.5011 80.1216L22.5011 80.1216L23.1941 79.4006ZM32.5825 88.4243L33.2755 87.7034L33.2755 87.7034L32.5825 88.4243ZM36.7124 88.238L35.9573 87.5824L35.9573 87.5824L36.7124 88.238ZM42.4524 81.6275L42.8942 80.7304L42.2027 80.3898L41.6973 80.9718L42.4524 81.6275ZM51.1074 84.4346L52.1068 84.3998L52.0785 83.5877L51.2778 83.4493L51.1074 84.4346ZM51.3719 92.0162L50.3725 92.051L50.3725 92.051L51.3719 92.0162ZM54.4764 95L54.4716 94L54.4716 94L54.4764 95ZM66.6874 94.9414L66.6922 95.9414L66.6922 95.9414L66.6874 94.9414ZM69.5828 91.9289L68.5834 91.9637L68.5834 91.9637L69.5828 91.9289ZM69.2537 82.494L68.8854 81.5643L68.2297 81.8241L68.2543 82.5289L69.2537 82.494ZM77.4458 77.9232L78.1447 77.208L77.535 76.6123L76.8502 77.1199L77.4458 77.9232ZM82.7914 83.1466L82.0925 83.8618L82.0925 83.8618L82.7914 83.1466ZM86.9237 82.9953L86.1744 82.3331L86.1744 82.3331L86.9237 82.9953ZM95.0241 73.8291L95.7734 74.4913L95.7734 74.4913L95.0241 73.8291ZM94.865 69.4845L94.1661 70.1998L94.1661 70.1998L94.865 69.4845ZM89.0518 63.8043L88.1485 63.3754L87.8422 64.0205L88.353 64.5196L89.0518 63.8043ZM91.5826 56.735L91.5623 55.7352L90.7972 55.7507L90.6123 56.4933L91.5826 56.735ZM100.106 56.5618L100.086 55.562L100.086 55.562L100.106 56.5618ZM102.957 53.5045L101.958 53.554L101.958 53.554L102.957 53.5045ZM102.303 40.2983L101.304 40.3478L101.304 40.3478L102.303 40.2983ZM99.155 37.3629L99.1347 36.3632L99.1347 36.3632L99.155 37.3629ZM91.1671 37.5252L90.2108 37.8178L90.4319 38.5404L91.1874 38.525L91.1671 37.5252ZM88.5128 31.2285L87.7577 30.5729L87.301 31.0989L87.6361 31.7097L88.5128 31.2285ZM93.3599 25.6463L92.6049 24.9907L92.6049 24.9907L93.3599 25.6463ZM93.1639 21.3022L92.471 22.0232L92.471 22.0232L93.1639 21.3022ZM83.7755 12.2784L84.4685 11.5575L84.4685 11.5575L83.7755 12.2784ZM79.6457 12.4648L78.8906 11.8091L78.8906 11.8091L79.6457 12.4648ZM74.8633 17.9724L74.4144 18.8659L75.1089 19.2148L75.6184 18.628L74.8633 17.9724ZM67.5716 15.3694L66.5719 15.3944L66.5914 16.1739L67.3521 16.345L67.5716 15.3694ZM67.3896 8.10147L66.3899 8.12649L66.3899 8.1265L67.3896 8.10147ZM64.3146 5.08234L64.3079 6.08232L64.3146 5.08234ZM50.0901 7.95404C50.0628 6.86224 50.9165 5.99274 52.0086 6.00005L52.022 4.00009C49.8005 3.98523 48.0352 5.78322 48.0908 8.00409L50.0901 7.95404ZM50.3023 16.4271L50.0901 7.95404L48.0908 8.00409L48.3029 16.4771L50.3023 16.4271ZM40.5878 22.1155C43.4465 20.048 46.4958 18.4793 49.629 17.3973L48.9761 15.5069C45.6572 16.653 42.433 18.3128 39.4158 20.4949L40.5878 22.1155ZM40.7007 20.59L35.5672 15.5739L34.1695 17.0044L39.3029 22.0204L40.7007 20.59ZM35.5672 15.5739C33.9731 14.0163 31.4626 14.1082 29.9867 15.7783L31.4853 17.1027C32.2038 16.2898 33.3935 16.2462 34.1695 17.0044L35.5672 15.5739ZM29.9867 15.7783L21.8863 24.9444L23.385 26.2688L31.4853 17.1027L29.9867 15.7783ZM21.8863 24.9444C20.4363 26.5852 20.5298 29.1362 22.0959 30.6665L23.4937 29.236C22.6897 28.4505 22.6407 27.1111 23.385 26.2688L21.8863 24.9444ZM22.0959 30.6665L27.5406 35.9867L28.9384 34.5562L23.4937 29.236L22.0959 30.6665ZM26.4985 42.9213C27.1189 40.4519 28.0009 38.0322 29.1376 35.7113L27.3414 34.8316C26.143 37.2785 25.213 39.8298 24.5587 42.4339L26.4985 42.9213ZM25.5371 41.6776L16.9392 41.6043L16.9221 43.6042L25.5201 43.6776L25.5371 41.6776ZM16.9392 41.6043C14.7176 41.5854 12.9492 43.3802 13.0011 45.6012L15.0006 45.5545C14.9751 44.4628 15.8301 43.5949 16.9221 43.6042L16.9392 41.6043ZM13.0011 45.6012L13.3096 58.8047L15.3091 58.758L15.0006 45.5545L13.0011 45.6012ZM13.3096 58.8047C13.3609 61.0008 15.1741 62.7873 17.3708 62.806L17.3878 60.8061C16.2709 60.7966 15.3352 59.8746 15.3091 58.758L13.3096 58.8047ZM17.3708 62.806L25.8908 62.8787L25.9079 60.8788L17.3878 60.8061L17.3708 62.806ZM29.577 67.9973C28.4319 65.9487 27.5267 63.8 26.8563 61.5886L24.9423 62.1688C25.6534 64.5145 26.6143 66.7962 27.8312 68.9731L29.577 67.9973ZM23.7532 75.7121L29.4592 69.1408L27.949 67.8295L22.2431 74.4008L23.7532 75.7121ZM23.8871 78.6796C23.0766 77.9006 23.0161 76.561 23.7532 75.7121L22.2431 74.4008C20.8075 76.0541 20.9226 78.6043 22.5011 80.1216L23.8871 78.6796ZM33.2755 87.7034L23.8871 78.6796L22.5011 80.1216L31.8896 89.1453L33.2755 87.7034ZM35.9573 87.5824C35.2461 88.4014 34.0575 88.455 33.2755 87.7034L31.8896 89.1453C33.4966 90.6899 36.006 90.5767 37.4674 88.8937L35.9573 87.5824ZM41.6973 80.9718L35.9573 87.5824L37.4674 88.8937L43.2075 82.2831L41.6973 80.9718ZM51.2778 83.4493C48.3714 82.9468 45.5483 82.0375 42.8942 80.7304L42.0106 82.5246C44.8394 83.9178 47.8457 84.8856 50.9371 85.42L51.2778 83.4493ZM52.3713 91.9813L52.1068 84.3998L50.108 84.4695L50.3725 92.051L52.3713 91.9813ZM54.4716 94C53.3554 94.0053 52.4102 93.0969 52.3713 91.9813L50.3725 92.051C50.4491 94.2471 52.2838 96.0105 54.4812 95.9999L54.4716 94ZM66.6826 93.9414L54.4716 94L54.4812 95.9999L66.6922 95.9414L66.6826 93.9414ZM68.5834 91.9637C68.6215 93.0558 67.7754 93.9362 66.6826 93.9414L66.6922 95.9414C68.9131 95.9308 70.6596 94.1136 70.5822 91.894L68.5834 91.9637ZM68.2543 82.5289L68.5834 91.9637L70.5822 91.894L70.2531 82.4592L68.2543 82.5289ZM76.8502 77.1199C74.3241 78.9928 71.6441 80.4714 68.8854 81.5643L69.622 83.4237C72.5431 82.2665 75.3757 80.7028 78.0413 78.7266L76.8502 77.1199ZM76.7469 78.6385L82.0925 83.8618L83.4903 82.4314L78.1447 77.208L76.7469 78.6385ZM82.0925 83.8618C83.6867 85.4195 86.1971 85.3276 87.6731 83.6575L86.1744 82.3331C85.456 83.146 84.2663 83.1896 83.4903 82.4314L82.0925 83.8618ZM87.6731 83.6575L95.7734 74.4913L94.2748 73.1669L86.1744 82.3331L87.6731 83.6575ZM95.7734 74.4913C97.2234 72.8505 97.13 70.2996 95.5638 68.7693L94.1661 70.1998C94.97 70.9853 95.0191 72.3247 94.2748 73.1669L95.7734 74.4913ZM95.5638 68.7693L89.7507 63.0891L88.353 64.5196L94.1661 70.1998L95.5638 68.7693ZM90.6123 56.4933C90.0264 58.8461 89.2031 61.1543 88.1485 63.3754L89.9552 64.2333C91.0671 61.8916 91.9351 59.4578 92.553 56.9766L90.6123 56.4933ZM91.6029 57.7348L100.126 57.5616L100.086 55.562L91.5623 55.7352L91.6029 57.7348ZM100.126 57.5616C102.347 57.5165 104.066 55.6729 103.956 53.4551L101.958 53.554C102.012 54.6458 101.179 55.5398 100.086 55.562L100.126 57.5616ZM103.956 53.4551L103.302 40.2489L101.304 40.3478L101.958 53.554L103.956 53.4551ZM103.302 40.2489C103.193 38.0538 101.332 36.3185 99.1347 36.3632L99.1753 38.3627C100.291 38.3401 101.249 39.2333 101.304 40.3478L103.302 40.2489ZM99.1347 36.3632L91.1468 36.5254L91.1874 38.525L99.1753 38.3627L99.1347 36.3632ZM87.6361 31.7097C88.7102 33.6669 89.567 35.7138 90.2108 37.8178L92.1233 37.2326C91.4404 35.0007 90.5308 32.8273 89.3894 30.7474L87.6361 31.7097ZM89.2678 31.8842L94.115 26.302L92.6049 24.9907L87.7577 30.5729L89.2678 31.8842ZM94.115 26.302C95.5505 24.6487 95.4355 22.0985 93.8569 20.5812L92.471 22.0232C93.2815 22.8022 93.3419 24.1418 92.6049 24.9907L94.115 26.302ZM93.8569 20.5812L84.4685 11.5575L83.0826 12.9994L92.471 22.0232L93.8569 20.5812ZM84.4685 11.5575C82.8615 10.0129 80.352 10.1261 78.8906 11.8091L80.4008 13.1204C81.1119 12.3014 82.3005 12.2477 83.0826 12.9994L84.4685 11.5575ZM78.8906 11.8091L74.1083 17.3167L75.6184 18.628L80.4008 13.1204L78.8906 11.8091ZM67.3521 16.345C69.7949 16.8944 72.1665 17.7365 74.4144 18.8659L75.3123 17.0788C72.9163 15.875 70.3903 14.9784 67.791 14.3937L67.3521 16.345ZM66.3899 8.1265L66.5719 15.3944L68.5712 15.3443L68.3893 8.07644L66.3899 8.1265ZM64.3079 6.08232C65.4248 6.08979 66.362 7.00993 66.3899 8.12649L68.3893 8.07644C68.3343 5.88034 66.518 4.09706 64.3213 4.08236L64.3079 6.08232ZM52.0086 6.00005L64.3079 6.08232L64.3213 4.08236L52.022 4.00009L52.0086 6.00005Z" fill="#4BD51B" mask="url(#path-2-inside-1)"/>
<ellipse rx="25.5662" ry="25.9619" transform="matrix(0.00107256 0.999999 -0.999869 -0.016183 57.9859 50.2124)" fill="url(#paint0_linear)"/>
<path d="M55.7644 28.3711C43.7891 29.6272 35.1259 40.4337 36.3879 52.32C37.6593 64.2937 48.392 72.9773 60.3673 71.7211C72.2552 70.4741 81.0151 59.7459 79.7438 47.7722C78.4817 35.8859 67.6523 27.1241 55.7644 28.3711ZM67.8927 59.3549C67.5431 59.3916 67.2716 59.3317 66.9908 59.1844C61.1312 56.4409 54.8284 57.0137 48.6647 58.8974C48.3243 59.0215 47.9058 59.2421 47.6436 59.2696C46.7695 59.3613 46.1708 58.7172 46.0965 58.018C46.0037 57.144 46.4818 56.652 47.1625 56.4038C54.1632 54.0788 61.4369 53.4925 68.1202 56.5031C68.6818 56.7977 68.9812 57.1198 69.0647 57.9064C69.1482 58.693 68.592 59.2816 67.8927 59.3549ZM69.6496 53.4264C69.2126 53.4722 68.8351 53.2467 68.5636 53.1868C62.7133 50.5307 54.4449 50.0724 47.3939 52.7563C46.9662 52.8895 46.8099 53.0826 46.3728 53.1285C45.4987 53.2202 44.6285 52.5161 44.5264 51.5547C44.4336 50.6807 44.8057 50.0231 45.652 49.6692C48.0253 48.7133 50.5045 47.923 54.0884 47.547C59.7701 46.951 65.4254 47.7718 69.987 49.9445C70.7234 50.2207 71.138 50.7958 71.2122 51.495C71.2269 52.4656 70.6111 53.3255 69.6496 53.4264ZM71.6541 46.4998C71.217 46.5456 70.9362 46.3984 70.4806 46.2694C63.8754 43.1622 52.6814 43.4527 45.6397 46.2239C45.3868 46.3388 44.9683 46.5595 44.5312 46.6053C43.3949 46.7245 42.4187 45.8548 42.298 44.7186C42.1681 43.495 42.8899 42.8007 43.6487 42.456C46.6153 41.2611 49.9779 40.4665 53.7366 40.0722C60.1176 39.4029 66.9875 40.0079 72.1013 42.3877C72.8377 42.664 73.3305 43.1425 73.4418 44.1913C73.5717 45.4149 72.703 46.3898 71.6541 46.4998Z" fill="black"/>
<path d="M82.92 65.2668C81.08 65.2668 79.4267 64.9468 77.96 64.3068C76.52 63.6402 75.3867 62.7335 74.56 61.5868C73.7333 60.4135 73.3067 59.0668 73.28 57.5468H77.16C77.2933 58.8535 77.8267 59.9602 78.76 60.8668C79.72 61.7468 81.1067 62.1868 82.92 62.1868C84.6533 62.1868 86.0133 61.7602 87 60.9068C88.0133 60.0268 88.52 58.9068 88.52 57.5468C88.52 56.4802 88.2267 55.6135 87.64 54.9468C87.0533 54.2802 86.32 53.7735 85.44 53.4268C84.56 53.0802 83.3733 52.7068 81.88 52.3068C80.04 51.8268 78.56 51.3468 77.44 50.8668C76.3467 50.3868 75.4 49.6402 74.6 48.6268C73.8267 47.5868 73.44 46.2002 73.44 44.4668C73.44 42.9468 73.8267 41.6002 74.6 40.4268C75.3733 39.2535 76.4533 38.3468 77.84 37.7068C79.2533 37.0668 80.8667 36.7468 82.68 36.7468C85.2933 36.7468 87.4267 37.4002 89.08 38.7068C90.76 40.0135 91.7067 41.7468 91.92 43.9068H87.92C87.7867 42.8402 87.2267 41.9068 86.24 41.1068C85.2533 40.2802 83.9467 39.8668 82.32 39.8668C80.8 39.8668 79.56 40.2668 78.6 41.0668C77.64 41.8402 77.16 42.9335 77.16 44.3468C77.16 45.3602 77.44 46.1868 78 46.8268C78.5867 47.4668 79.2933 47.9602 80.12 48.3068C80.9733 48.6268 82.16 49.0002 83.68 49.4268C85.52 49.9335 87 50.4402 88.12 50.9468C89.24 51.4268 90.2 52.1868 91 53.2268C91.8 54.2402 92.2 55.6268 92.2 57.3868C92.2 58.7468 91.84 60.0268 91.12 61.2268C90.4 62.4268 89.3333 63.4002 87.92 64.1468C86.5067 64.8935 84.84 65.2668 82.92 65.2668ZM101.197 47.1068C101.917 45.8535 102.983 44.8135 104.397 43.9868C105.837 43.1335 107.503 42.7068 109.397 42.7068C111.343 42.7068 113.103 43.1735 114.677 44.1068C116.277 45.0402 117.53 46.3602 118.437 48.0668C119.343 49.7468 119.797 51.7068 119.797 53.9468C119.797 56.1602 119.343 58.1335 118.437 59.8668C117.53 61.6002 116.277 62.9468 114.677 63.9068C113.103 64.8668 111.343 65.3468 109.397 65.3468C107.53 65.3468 105.877 64.9335 104.437 64.1068C103.023 63.2535 101.943 62.2002 101.197 60.9468V75.3868H97.5566V43.0668H101.197V47.1068ZM116.077 53.9468C116.077 52.2935 115.743 50.8535 115.077 49.6268C114.41 48.4002 113.503 47.4668 112.357 46.8268C111.237 46.1868 109.997 45.8668 108.637 45.8668C107.303 45.8668 106.063 46.2002 104.917 46.8668C103.797 47.5068 102.89 48.4535 102.197 49.7068C101.53 50.9335 101.197 52.3602 101.197 53.9868C101.197 55.6402 101.53 57.0935 102.197 58.3468C102.89 59.5735 103.797 60.5202 104.917 61.1868C106.063 61.8268 107.303 62.1468 108.637 62.1468C109.997 62.1468 111.237 61.8268 112.357 61.1868C113.503 60.5202 114.41 59.5735 115.077 58.3468C115.743 57.0935 116.077 55.6268 116.077 53.9468ZM134.148 65.3468C132.094 65.3468 130.228 64.8802 128.548 63.9468C126.894 63.0135 125.588 61.6935 124.628 59.9868C123.694 58.2535 123.228 56.2535 123.228 53.9868C123.228 51.7468 123.708 49.7735 124.668 48.0668C125.654 46.3335 126.988 45.0135 128.668 44.1068C130.348 43.1735 132.228 42.7068 134.308 42.7068C136.388 42.7068 138.268 43.1735 139.948 44.1068C141.628 45.0135 142.948 46.3202 143.908 48.0268C144.894 49.7335 145.388 51.7202 145.388 53.9868C145.388 56.2535 144.881 58.2535 143.868 59.9868C142.881 61.6935 141.534 63.0135 139.828 63.9468C138.121 64.8802 136.228 65.3468 134.148 65.3468ZM134.148 62.1468C135.454 62.1468 136.681 61.8402 137.828 61.2268C138.974 60.6135 139.894 59.6935 140.588 58.4668C141.308 57.2402 141.668 55.7468 141.668 53.9868C141.668 52.2268 141.321 50.7335 140.628 49.5068C139.934 48.2802 139.028 47.3735 137.908 46.7868C136.788 46.1735 135.574 45.8668 134.268 45.8668C132.934 45.8668 131.708 46.1735 130.588 46.7868C129.494 47.3735 128.614 48.2802 127.948 49.5068C127.281 50.7335 126.948 52.2268 126.948 53.9868C126.948 55.7735 127.268 57.2802 127.908 58.5068C128.574 59.7335 129.454 60.6535 130.548 61.2668C131.641 61.8535 132.841 62.1468 134.148 62.1468ZM154.614 46.0668V58.9868C154.614 60.0535 154.84 60.8135 155.294 61.2668C155.747 61.6935 156.534 61.9068 157.654 61.9068H160.334V64.9868H157.054C155.027 64.9868 153.507 64.5202 152.494 63.5868C151.48 62.6535 150.974 61.1202 150.974 58.9868V46.0668H148.134V43.0668H150.974V37.5468H154.614V43.0668H160.334V46.0668H154.614ZM166.624 39.5068C165.931 39.5068 165.344 39.2668 164.864 38.7868C164.384 38.3068 164.144 37.7202 164.144 37.0268C164.144 36.3335 164.384 35.7468 164.864 35.2668C165.344 34.7868 165.931 34.5468 166.624 34.5468C167.291 34.5468 167.851 34.7868 168.304 35.2668C168.784 35.7468 169.024 36.3335 169.024 37.0268C169.024 37.7202 168.784 38.3068 168.304 38.7868C167.851 39.2668 167.291 39.5068 166.624 39.5068ZM168.384 43.0668V64.9868H164.744V43.0668H168.384ZM173.228 53.9868C173.228 51.7202 173.681 49.7468 174.588 48.0668C175.494 46.3602 176.748 45.0402 178.348 44.1068C179.974 43.1735 181.828 42.7068 183.908 42.7068C186.601 42.7068 188.814 43.3602 190.548 44.6668C192.308 45.9735 193.468 47.7868 194.028 50.1068H190.108C189.734 48.7735 189.001 47.7202 187.908 46.9468C186.841 46.1735 185.508 45.7868 183.908 45.7868C181.828 45.7868 180.148 46.5068 178.868 47.9468C177.588 49.3602 176.948 51.3735 176.948 53.9868C176.948 56.6268 177.588 58.6668 178.868 60.1068C180.148 61.5468 181.828 62.2668 183.908 62.2668C185.508 62.2668 186.841 61.8935 187.908 61.1468C188.974 60.4002 189.708 59.3335 190.108 57.9468H194.028C193.441 60.1868 192.268 61.9868 190.508 63.3468C188.748 64.6802 186.548 65.3468 183.908 65.3468C181.828 65.3468 179.974 64.8802 178.348 63.9468C176.748 63.0135 175.494 61.6935 174.588 59.9868C173.681 58.2802 173.228 56.2802 173.228 53.9868ZM208.445 65.3468C206.391 65.3468 204.525 64.8802 202.845 63.9468C201.191 63.0135 199.885 61.6935 198.925 59.9868C197.991 58.2535 197.525 56.2535 197.525 53.9868C197.525 51.7468 198.005 49.7735 198.965 48.0668C199.951 46.3335 201.285 45.0135 202.965 44.1068C204.645 43.1735 206.525 42.7068 208.605 42.7068C210.685 42.7068 212.565 43.1735 214.245 44.1068C215.925 45.0135 217.245 46.3202 218.205 48.0268C219.191 49.7335 219.685 51.7202 219.685 53.9868C219.685 56.2535 219.178 58.2535 218.165 59.9868C217.178 61.6935 215.831 63.0135 214.125 63.9468C212.418 64.8802 210.525 65.3468 208.445 65.3468ZM208.445 62.1468C209.751 62.1468 210.978 61.8402 212.125 61.2268C213.271 60.6135 214.191 59.6935 214.885 58.4668C215.605 57.2402 215.965 55.7468 215.965 53.9868C215.965 52.2268 215.618 50.7335 214.925 49.5068C214.231 48.2802 213.325 47.3735 212.205 46.7868C211.085 46.1735 209.871 45.8668 208.565 45.8668C207.231 45.8668 206.005 46.1735 204.885 46.7868C203.791 47.3735 202.911 48.2802 202.245 49.5068C201.578 50.7335 201.245 52.2268 201.245 53.9868C201.245 55.7735 201.565 57.2802 202.205 58.5068C202.871 59.7335 203.751 60.6535 204.845 61.2668C205.938 61.8535 207.138 62.1468 208.445 62.1468ZM233.511 42.7068C235.404 42.7068 237.057 43.1202 238.471 43.9468C239.911 44.7735 240.977 45.8135 241.671 47.0668V43.0668H245.351V65.4668C245.351 67.4668 244.924 69.2402 244.071 70.7868C243.217 72.3602 241.991 73.5868 240.391 74.4668C238.817 75.3468 236.977 75.7868 234.871 75.7868C231.991 75.7868 229.591 75.1068 227.671 73.7468C225.751 72.3868 224.617 70.5335 224.271 68.1868H227.871C228.271 69.5202 229.097 70.5868 230.351 71.3868C231.604 72.2135 233.111 72.6268 234.871 72.6268C236.871 72.6268 238.497 72.0002 239.751 70.7468C241.031 69.4935 241.671 67.7335 241.671 65.4668V60.8668C240.951 62.1468 239.884 63.2135 238.471 64.0668C237.057 64.9202 235.404 65.3468 233.511 65.3468C231.564 65.3468 229.791 64.8668 228.191 63.9068C226.617 62.9468 225.377 61.6002 224.471 59.8668C223.564 58.1335 223.111 56.1602 223.111 53.9468C223.111 51.7068 223.564 49.7468 224.471 48.0668C225.377 46.3602 226.617 45.0402 228.191 44.1068C229.791 43.1735 231.564 42.7068 233.511 42.7068ZM241.671 53.9868C241.671 52.3335 241.337 50.8935 240.671 49.6668C240.004 48.4402 239.097 47.5068 237.951 46.8668C236.831 46.2002 235.591 45.8668 234.231 45.8668C232.871 45.8668 231.631 46.1868 230.511 46.8268C229.391 47.4668 228.497 48.4002 227.831 49.6268C227.164 50.8535 226.831 52.2935 226.831 53.9468C226.831 55.6268 227.164 57.0935 227.831 58.3468C228.497 59.5735 229.391 60.5202 230.511 61.1868C231.631 61.8268 232.871 62.1468 234.231 62.1468C235.591 62.1468 236.831 61.8268 237.951 61.1868C239.097 60.5202 240.004 59.5735 240.671 58.3468C241.337 57.0935 241.671 55.6402 241.671 53.9868ZM259.262 65.3468C257.582 65.3468 256.075 65.0668 254.742 64.5068C253.409 63.9202 252.355 63.1202 251.582 62.1068C250.809 61.0668 250.382 59.8802 250.302 58.5468H254.062C254.169 59.6402 254.675 60.5335 255.582 61.2268C256.515 61.9202 257.729 62.2668 259.222 62.2668C260.609 62.2668 261.702 61.9602 262.502 61.3468C263.302 60.7335 263.702 59.9602 263.702 59.0268C263.702 58.0668 263.275 57.3602 262.422 56.9068C261.569 56.4268 260.249 55.9602 258.462 55.5068C256.835 55.0802 255.502 54.6535 254.462 54.2268C253.449 53.7735 252.569 53.1202 251.822 52.2668C251.102 51.3868 250.742 50.2402 250.742 48.8268C250.742 47.7068 251.075 46.6802 251.742 45.7468C252.409 44.8135 253.355 44.0802 254.582 43.5468C255.809 42.9868 257.209 42.7068 258.782 42.7068C261.209 42.7068 263.169 43.3202 264.662 44.5468C266.155 45.7735 266.955 47.4535 267.062 49.5868H263.422C263.342 48.4402 262.875 47.5202 262.022 46.8268C261.195 46.1335 260.075 45.7868 258.662 45.7868C257.355 45.7868 256.315 46.0668 255.542 46.6268C254.769 47.1868 254.382 47.9202 254.382 48.8268C254.382 49.5468 254.609 50.1468 255.062 50.6268C255.542 51.0802 256.129 51.4535 256.822 51.7468C257.542 52.0135 258.529 52.3202 259.782 52.6668C261.355 53.0935 262.635 53.5202 263.622 53.9468C264.609 54.3468 265.449 54.9602 266.142 55.7868C266.862 56.6135 267.235 57.6935 267.262 59.0268C267.262 60.2268 266.929 61.3068 266.262 62.2668C265.595 63.2268 264.649 63.9868 263.422 64.5468C262.222 65.0802 260.835 65.3468 259.262 65.3468Z" fill="white"/>
</g>
<defs>
<filter id="filter0_d" x="0" y="0" width="302" height="107" filterUnits="userSpaceOnUse" color-interpolation-filters="sRGB">
<feFlood flood-opacity="0" result="BackgroundImageFix"/>
<feColorMatrix in="SourceAlpha" type="matrix" values="0 0 0 0 0 0 0 0 0 0 0 0 0 0 0 0 0 0 127 0"/>
<feOffset dy="4"/>
<feGaussianBlur stdDeviation="2"/>
<feColorMatrix type="matrix" values="0 0 0 0 0 0 0 0 0 0 0 0 0 0 0 0 0 0 0.25 0"/>
<feBlend mode="normal" in2="BackgroundImageFix" result="effect1_dropShadow"/>
<feBlend mode="normal" in="SourceGraphic" in2="effect1_dropShadow" result="shape"/>
</filter>
<filter id="filter1_d" x="10" y="5" width="292" height="98" filterUnits="userSpaceOnUse" color-interpolation-filters="sRGB">
<feFlood flood-opacity="0" result="BackgroundImageFix"/>
<feColorMatrix in="SourceAlpha" type="matrix" values="0 0 0 0 0 0 0 0 0 0 0 0 0 0 0 0 0 0 127 0"/>
<feOffset dy="4"/>
<feGaussianBlur stdDeviation="2"/>
<feColorMatrix type="matrix" values="0 0 0 0 0 0 0 0 0 0 0 0 0 0 0 0 0 0 0.25 0"/>
<feBlend mode="normal" in2="BackgroundImageFix" result="effect1_dropShadow"/>
<feBlend mode="normal" in="SourceGraphic" in2="effect1_dropShadow" result="shape"/>
</filter>
<linearGradient id="paint0_linear" x1="51.4045" y1="25.9049" x2="-0.362258" y2="27.6352" gradientUnits="userSpaceOnUse">
<stop stop-color="#1E7300"/>
<stop offset="1" stop-color="white"/>
</linearGradient>
</defs>
</svg>
